<svg width="18" height="18" viewBox="0 0 18 18" fill="none" xmlns="http://www.w3.org/2000/svg">
<path d="M17.4836 7.54841H16.7989V7.51313H9.14893V10.9131H13.9527C13.2519 12.8924 11.3687 14.3131 9.14893 14.3131C6.33245 14.3131 4.04893 12.0296 4.04893 9.21313C4.04893 6.39666 6.33245 4.11313 9.14893 4.11313C10.449 4.11313 11.6318 4.60358 12.5324 5.40471L14.9366 3.00048C13.4185 1.58566 11.3878 0.713135 9.14893 0.713135C4.4548 0.713135 0.648926 4.51901 0.648926 9.21313C0.648926 13.9073 4.4548 17.7131 9.14893 17.7131C13.8431 17.7131 17.6489 13.9073 17.6489 9.21313C17.6489 8.64321 17.5903 8.08688 17.4836 7.54841Z" fill="#FFC107"/>
<path d="M9.14916 17.7131C11.3447 17.7131 13.3397 16.8729 14.848 15.5065L12.2172 13.2804C11.3638 13.9268 10.303 14.3131 9.14916 14.3131C6.93831 14.3131 5.06108 12.9034 4.35388 10.9361L1.58203 13.0717C2.98878 15.8244 5.84563 17.7131 9.14916 17.7131Z" fill="#4CAF50"/>
<path d="M1.62891 5.25681L4.42158 7.30488C5.17723 5.43403 7.00728 4.11313 9.14886 4.11313C10.4489 4.11313 11.6317 4.60358 12.5323 5.40471L14.9365 3.00048C13.4184 1.58566 11.3878 0.713135 9.14886 0.713135C5.88401 0.713135 3.05266 2.55636 1.62891 5.25681Z" fill="#FF3D00"/>
<path d="M17.4836 7.5484H16.7989V7.51312H9.14893V10.9131H13.9527C13.6161 11.8638 13.0045 12.6837 12.2157 13.2808C12.2162 13.2804 12.2166 13.2804 12.217 13.2799L14.8478 15.5061C14.6616 15.6752 17.6489 13.4631 17.6489 9.21312C17.6489 8.6432 17.5903 8.08687 17.4836 7.5484Z" fill="#1976D2"/>
</svg>
